<svg xmlns="http://www.w3.org/2000/svg" viewBox="0 0 40 40" fill="none">
  <!-- Document body - white for dark backgrounds -->
  <path d="M8 4C8 2.89543 8.89543 2 10 2H24L32 10V36C32 37.1046 31.1046 38 30 38H10C8.89543 38 8 37.1046 8 36V4Z" fill="white"/>
  <!-- Folded corner -->
  <path d="M24 2L32 10H26C24.8954 10 24 9.10457 24 8V2Z" fill="#e0e0e0"/>
  <!-- Text lines -->
  <rect x="13" y="15" width="14" height="1.5" rx="0.75" fill="#c0c0c0"/>
  <rect x="13" y="19.5" width="10" height="1.5" rx="0.75" fill="#c0c0c0"/>
  <rect x="13" y="24" width="12" height="1.5" rx="0.75" fill="#c0c0c0"/>
  <!-- Checkmark circle -->
  <circle cx="28" cy="30" r="9" fill="#16a34a"/>
  <!-- Checkmark -->
  <path d="M23.5 30L26.5 33L32.5 27" stroke="white" stroke-width="2.5" stroke-linecap="round" stroke-linejoin="round"/>
</svg>
